<svg width="64" height="64" viewBox="0 0 64 64" fill="none" xmlns="http://www.w3.org/2000/svg">
<path d="M8 25.7333V20.0667L20.0667 8H25.7333L8 25.7333ZM8 12.6667V8H12.6667L8 12.6667ZM43.1333 17.1333C42.6889 16.6444 42.2116 16.1671 41.7013 15.7013C41.1911 15.2356 40.6684 14.824 40.1333 14.4667L46.6 8H52.2667L43.1333 17.1333ZM14.6667 39.9333L19.8 34.8C20.1111 35.2889 20.4338 35.7333 20.768 36.1333C21.1022 36.5333 21.4684 36.9111 21.8667 37.2667C20.6222 37.5778 19.3671 37.9671 18.1013 38.4347C16.8356 38.9022 15.6907 39.4018 14.6667 39.9333ZM46.6667 26.8V26.6667C46.6667 25.8222 46.6 25 46.4667 24.2C46.3333 23.4 46.1333 22.6222 45.8667 21.8667L56 11.7333V17.4667L46.6667 26.8ZM29.0667 12.2667L33.4 8H39.0667L34.8 12.2667C34.3111 12.1778 33.8444 12.1111 33.4 12.0667C32.9556 12.0222 32.4889 12 32 12C31.5111 12 31.0222 12.0222 30.5333 12.0667C30.0444 12.1111 29.5556 12.1778 29.0667 12.2667ZM8 39V33.3333L17.6 23.7333C17.5111 24.2222 17.4444 24.7111 17.4 25.2C17.3556 25.6889 17.3333 26.1778 17.3333 26.6667C17.3333 27.1556 17.3556 27.6222 17.4 28.0667C17.4444 28.5111 17.5111 28.9556 17.6 29.4L8 39ZM55.2667 44.5333C54.9111 44 54.5004 43.4889 54.0347 43C53.5689 42.5111 53.0684 42.0667 52.5333 41.6667L56 38.2V43.8667L55.2667 44.5333ZM47.5333 39.0667C47.2222 38.9333 46.9111 38.8107 46.6 38.6987C46.2889 38.5867 45.9778 38.4871 45.6667 38.4C45.2667 38.2667 44.8782 38.1333 44.5013 38C44.1244 37.8667 43.7351 37.7556 43.3333 37.6667L56 24.9333V30.6667L47.5333 39.0667ZM32 37.3333C29.0667 37.3333 26.5556 36.2889 24.4667 34.2C22.3778 32.1111 21.3333 29.6 21.3333 26.6667C21.3333 23.7333 22.3778 21.2222 24.4667 19.1333C26.5556 17.0444 29.0667 16 32 16C34.9333 16 37.4444 17.0444 39.5333 19.1333C41.6222 21.2222 42.6667 23.7333 42.6667 26.6667C42.6667 29.6 41.6222 32.1111 39.5333 34.2C37.4444 36.2889 34.9333 37.3333 32 37.3333ZM10.6667 53.3333V51.2667C10.6667 49.7556 11.0444 48.3556 11.8 47.0667C12.5556 45.7778 13.6 44.8 14.9333 44.1333C17.2 42.9778 19.7671 42 22.6347 41.2C25.5022 40.4 28.624 40 32 40C35.376 40 38.4987 40.4 41.368 41.2C44.2373 42 46.8036 42.9778 49.0667 44.1333C50.4 44.8 51.4444 45.7778 52.2 47.0667C52.9556 48.3556 53.3333 49.7556 53.3333 51.2667V53.3333C53.3333 54.0889 53.0782 54.7227 52.568 55.2347C52.0578 55.7467 51.424 56.0018 50.6667 56H13.3333C12.5778 56 11.9449 55.744 11.4347 55.232C10.9244 54.72 10.6684 54.0871 10.6667 53.3333Z" fill="url(#paint0_linear_38_57)"/>
<defs>
<linearGradient id="paint0_linear_38_57" x1="-89.875" y1="-85.75" x2="108.875" y2="95.375" gradientUnits="userSpaceOnUse">
<stop stop-color="#0172EA"/>
<stop offset="1" stop-color="#9747FF"/>
</linearGradient>
</defs>
</svg>
