<svg width="64" height="65" viewBox="0 0 64 65" fill="none" xmlns="http://www.w3.org/2000/svg">
<path d="M21.3333 40.6023H7.99992C6.39992 40.6023 5.33325 41.6689 5.33325 43.2689C5.33325 44.8689 6.39992 45.9356 7.99992 45.9356H18.6666V56.6023C18.6666 58.2023 19.7333 59.2689 21.3333 59.2689C22.9333 59.2689 23.9999 58.2023 23.9999 56.6023V43.2689C23.9999 41.6689 22.9333 40.6023 21.3333 40.6023ZM21.3333 5.93561C19.7333 5.93561 18.6666 7.00227 18.6666 8.60227V19.2689H7.99992C6.39992 19.2689 5.33325 20.3356 5.33325 21.9356C5.33325 23.5356 6.39992 24.6023 7.99992 24.6023H21.3333C22.9333 24.6023 23.9999 23.5356 23.9999 21.9356V8.60227C23.9999 7.00227 22.9333 5.93561 21.3333 5.93561ZM42.6666 24.6023H55.9999C57.5999 24.6023 58.6666 23.5356 58.6666 21.9356C58.6666 20.3356 57.5999 19.2689 55.9999 19.2689H45.3332V8.60227C45.3332 7.00227 44.2666 5.93561 42.6666 5.93561C41.0666 5.93561 39.9999 7.00227 39.9999 8.60227V21.9356C39.9999 23.5356 41.0666 24.6023 42.6666 24.6023ZM55.9999 40.6023H42.6666C41.0666 40.6023 39.9999 41.6689 39.9999 43.2689V56.6023C39.9999 58.2023 41.0666 59.2689 42.6666 59.2689C44.2666 59.2689 45.3332 58.2023 45.3332 56.6023V45.9356H55.9999C57.5999 45.9356 58.6666 44.8689 58.6666 43.2689C58.6666 41.6689 57.5999 40.6023 55.9999 40.6023Z" fill="url(#paint0_linear_38_36)"/>
<defs>
<linearGradient id="paint0_linear_38_36" x1="-103.417" y1="-98.231" x2="117.417" y2="103.019" gradientUnits="userSpaceOnUse">
<stop stop-color="#0172EA"/>
<stop offset="1" stop-color="#9747FF"/>
</linearGradient>
</defs>
</svg>
