<svg width="28" height="28" viewBox="0 0 28 28" fill="none" xmlns="http://www.w3.org/2000/svg">
<path d="M14.6918 27.1343L14.679 27.1367L14.5961 27.1775L14.5728 27.1822L14.5565 27.1775L14.4736 27.1367C14.4612 27.1328 14.4518 27.1347 14.4456 27.1425L14.441 27.1542L14.4211 27.6535L14.427 27.6768L14.4386 27.692L14.56 27.7783L14.5775 27.783L14.5915 27.7783L14.7128 27.692L14.7268 27.6733L14.7315 27.6535L14.7116 27.1553C14.7085 27.1429 14.7019 27.1359 14.6918 27.1343ZM15.001 27.0025L14.9858 27.0048L14.77 27.1133L14.7583 27.125L14.7548 27.1378L14.7758 27.6395L14.7816 27.6535L14.791 27.6617L15.0255 27.7702C15.0402 27.7741 15.0515 27.771 15.0593 27.7608L15.064 27.7445L15.0243 27.0282C15.0204 27.0142 15.0126 27.0056 15.001 27.0025ZM14.1668 27.0048C14.1616 27.0017 14.1555 27.0007 14.1496 27.002C14.1438 27.0033 14.1386 27.0068 14.1353 27.0118L14.1283 27.0282L14.0886 27.7445C14.0894 27.7585 14.096 27.7678 14.1085 27.7725L14.126 27.7702L14.3605 27.6617L14.3721 27.6523L14.3768 27.6395L14.3966 27.1378L14.3931 27.1238L14.3815 27.1122L14.1668 27.0048Z" fill="white"/>
<path d="M23.3333 5.83331C23.6428 5.83331 23.9395 5.95623 24.1583 6.17502C24.3771 6.39381 24.5 6.69056 24.5 6.99998C24.5 7.3094 24.3771 7.60615 24.1583 7.82494C23.9395 8.04373 23.6428 8.16665 23.3333 8.16665H22.1667L22.1632 8.24948L21.0747 23.499C21.0328 24.0877 20.7693 24.6386 20.3375 25.0408C19.9056 25.443 19.3373 25.6667 18.7472 25.6666H9.25167C8.6615 25.6667 8.09324 25.443 7.66137 25.0408C7.22949 24.6386 6.96607 24.0877 6.92417 23.499L5.83567 8.25065L5.83333 8.16665H4.66667C4.35725 8.16665 4.0605 8.04373 3.84171 7.82494C3.62292 7.60615 3.5 7.3094 3.5 6.99998C3.5 6.69056 3.62292 6.39381 3.84171 6.17502C4.0605 5.95623 4.35725 5.83331 4.66667 5.83331H23.3333ZM16.3333 2.33331C16.6428 2.33331 16.9395 2.45623 17.1583 2.67502C17.3771 2.89381 17.5 3.19056 17.5 3.49998C17.5 3.8094 17.3771 4.10615 17.1583 4.32494C16.9395 4.54373 16.6428 4.66665 16.3333 4.66665H11.6667C11.3572 4.66665 11.0605 4.54373 10.8417 4.32494C10.6229 4.10615 10.5 3.8094 10.5 3.49998C10.5 3.19056 10.6229 2.89381 10.8417 2.67502C11.0605 2.45623 11.3572 2.33331 11.6667 2.33331H16.3333Z" fill="white"/>
</svg>
