<svg width="64" height="64" viewBox="0 0 64 64" fill="none" xmlns="http://www.w3.org/2000/svg">
<rect width="64" height="64" fill="url(#paint0_linear_38_49)"/>
<path d="M23.0213 27.8182H24.8509V34.9773C24.8475 35.6335 24.7083 36.1986 24.4332 36.6726C24.1581 37.1432 23.7737 37.5062 23.2798 37.7614C22.7893 38.0133 22.2176 38.1392 21.5646 38.1392C20.968 38.1392 20.4311 38.0331 19.9538 37.821C19.4799 37.6056 19.1037 37.2874 18.8253 36.8665C18.5469 36.4455 18.4077 35.9219 18.4077 35.2955H20.2422C20.2455 35.5705 20.3052 35.8075 20.4212 36.0064C20.5405 36.2053 20.7045 36.3577 20.9134 36.4638C21.1222 36.5698 21.3625 36.6229 21.6342 36.6229C21.9292 36.6229 22.1795 36.5616 22.3849 36.4389C22.5904 36.313 22.7462 36.1274 22.8523 35.8821C22.9616 35.6368 23.018 35.3352 23.0213 34.9773V27.8182ZM26.8519 38V27.8182H30.6701C31.4523 27.8182 32.1085 27.964 32.6388 28.2557C33.1725 28.5473 33.5752 28.9484 33.8469 29.4588C34.122 29.9659 34.2596 30.5426 34.2596 31.1889C34.2596 31.8419 34.122 32.4219 33.8469 32.929C33.5719 33.4361 33.1658 33.8355 32.6289 34.1271C32.092 34.4155 31.4308 34.5597 30.6452 34.5597H28.1147V33.0433H30.3967C30.854 33.0433 31.2286 32.9638 31.5202 32.8047C31.8119 32.6456 32.0273 32.4268 32.1665 32.1484C32.3091 31.87 32.3803 31.5502 32.3803 31.1889C32.3803 30.8277 32.3091 30.5095 32.1665 30.2344C32.0273 29.9593 31.8103 29.7455 31.5153 29.593C31.2236 29.4373 30.8474 29.3594 30.3867 29.3594H28.6964V38H26.8519ZM42.6827 31.0696C42.5998 30.8011 42.4855 30.5608 42.3397 30.3487C42.1971 30.1333 42.0248 29.9493 41.8226 29.7969C41.6238 29.6444 41.3951 29.5301 41.1365 29.4538C40.878 29.3743 40.5963 29.3345 40.2914 29.3345C39.7445 29.3345 39.2573 29.4721 38.8297 29.7472C38.4022 30.0223 38.0658 30.4266 37.8205 30.9602C37.5785 31.4905 37.4576 32.1368 37.4576 32.8991C37.4576 33.6681 37.5785 34.3194 37.8205 34.853C38.0624 35.3866 38.3989 35.7926 38.8297 36.071C39.2606 36.3461 39.7611 36.4837 40.3311 36.4837C40.8482 36.4837 41.2956 36.3842 41.6735 36.1854C42.0546 35.9865 42.348 35.7048 42.5534 35.3402C42.7589 34.9723 42.8617 34.5414 42.8617 34.0476L43.2793 34.1122H40.5151V32.6705H44.6465V33.8935C44.6465 34.7652 44.4609 35.5192 44.0897 36.1555C43.7185 36.7919 43.208 37.2824 42.5584 37.6271C41.9088 37.9685 41.1631 38.1392 40.3212 38.1392C39.3832 38.1392 38.5596 37.9287 37.8503 37.5078C37.1444 37.0836 36.5925 36.482 36.1948 35.7031C35.8004 34.9209 35.6032 33.9929 35.6032 32.919C35.6032 32.0971 35.7192 31.3629 35.9512 30.7166C36.1865 30.0703 36.5146 29.5218 36.9355 29.071C37.3565 28.617 37.8503 28.2723 38.4171 28.0369C38.9838 27.7983 39.6003 27.679 40.2665 27.679C40.83 27.679 41.3553 27.7618 41.8425 27.9276C42.3297 28.09 42.7623 28.322 43.1401 28.6236C43.5212 28.9252 43.8345 29.2831 44.0797 29.6974C44.325 30.1117 44.4857 30.5691 44.562 31.0696H42.6827Z" fill="white"/>
<defs>
<linearGradient id="paint0_linear_38_49" x1="-130.5" y1="-125" x2="134.5" y2="116.5" gradientUnits="userSpaceOnUse">
<stop stop-color="#0172EA"/>
<stop offset="1" stop-color="#9747FF"/>
</linearGradient>
</defs>
</svg>
