<svg width="64" height="64" viewBox="0 0 64 64" fill="none" xmlns="http://www.w3.org/2000/svg">
<rect width="64" height="64" fill="url(#paint0_linear_54_161)" fill-opacity="0.1"/>
<path d="M27.2 35.6H21.2C20.48 35.6 20 36.08 20 36.8C20 37.52 20.48 38 21.2 38H26V42.8C26 43.52 26.48 44 27.2 44C27.92 44 28.4 43.52 28.4 42.8V36.8C28.4 36.08 27.92 35.6 27.2 35.6ZM27.2 20C26.48 20 26 20.48 26 21.2V26H21.2C20.48 26 20 26.48 20 27.2C20 27.92 20.48 28.4 21.2 28.4H27.2C27.92 28.4 28.4 27.92 28.4 27.2V21.2C28.4 20.48 27.92 20 27.2 20ZM36.8 28.4H42.8C43.52 28.4 44 27.92 44 27.2C44 26.48 43.52 26 42.8 26H38V21.2C38 20.48 37.52 20 36.8 20C36.08 20 35.6 20.48 35.6 21.2V27.2C35.6 27.92 36.08 28.4 36.8 28.4ZM42.8 35.6H36.8C36.08 35.6 35.6 36.08 35.6 36.8V42.8C35.6 43.52 36.08 44 36.8 44C37.52 44 38 43.52 38 42.8V38H42.8C43.52 38 44 37.52 44 36.8C44 36.08 43.52 35.6 42.8 35.6Z" fill="url(#paint1_linear_54_161)"/>
<defs>
<linearGradient id="paint0_linear_54_161" x1="-130.5" y1="-125" x2="134.5" y2="116.5" gradientUnits="userSpaceOnUse">
<stop stop-color="#0172EA"/>
<stop offset="1" stop-color="#9747FF"/>
</linearGradient>
<linearGradient id="paint1_linear_54_161" x1="-28.9375" y1="-26.875" x2="70.4375" y2="63.6875" gradientUnits="userSpaceOnUse">
<stop stop-color="#0172EA"/>
<stop offset="1" stop-color="#9747FF"/>
</linearGradient>
</defs>
</svg>
