<svg width="127" height="32" viewBox="0 0 127 32" fill="none" xmlns="http://www.w3.org/2000/svg">
<path d="M33.1165 14.0369C33.0369 13.2926 32.7017 12.7131 32.1108 12.2983C31.5256 11.8835 30.7642 11.6761 29.8267 11.6761C29.1676 11.6761 28.6023 11.7756 28.1307 11.9744C27.6591 12.1733 27.2983 12.4432 27.0483 12.7841C26.7983 13.125 26.6705 13.5142 26.6648 13.9517C26.6648 14.3153 26.7472 14.6307 26.9119 14.8977C27.0824 15.1648 27.3125 15.392 27.6023 15.5795C27.892 15.7614 28.2131 15.9148 28.5653 16.0398C28.9176 16.1648 29.2727 16.2699 29.6307 16.3551L31.267 16.7642C31.9261 16.9176 32.5597 17.125 33.1676 17.3864C33.7812 17.6477 34.3295 17.9773 34.8125 18.375C35.3011 18.7727 35.6875 19.2528 35.9716 19.8153C36.2557 20.3778 36.3977 21.0369 36.3977 21.7926C36.3977 22.8153 36.1364 23.7159 35.6136 24.4943C35.0909 25.267 34.3352 25.8722 33.3466 26.3097C32.3636 26.7415 31.1733 26.9574 29.7756 26.9574C28.4176 26.9574 27.2386 26.7472 26.2386 26.3267C25.2443 25.9063 24.4659 25.2926 23.9034 24.4858C23.3466 23.679 23.0455 22.696 23 21.5369H26.1108C26.1563 22.1449 26.3438 22.6506 26.6733 23.054C27.0028 23.4574 27.4318 23.7585 27.9602 23.9574C28.4943 24.1562 29.0909 24.2557 29.75 24.2557C30.4375 24.2557 31.0398 24.1534 31.5568 23.9489C32.0795 23.7386 32.4886 23.4489 32.7841 23.0795C33.0795 22.7045 33.2301 22.267 33.2358 21.767C33.2301 21.3125 33.0966 20.9375 32.8352 20.642C32.5739 20.3409 32.2074 20.0909 31.7358 19.892C31.2699 19.6875 30.7244 19.5057 30.0994 19.3466L28.1136 18.8352C26.6761 18.4659 25.5398 17.9062 24.7045 17.1562C23.875 16.4006 23.4602 15.3977 23.4602 14.1477C23.4602 13.1193 23.7386 12.2188 24.2955 11.446C24.858 10.6733 25.6222 10.0739 26.5881 9.64773C27.554 9.21591 28.6477 9 29.8693 9C31.108 9 32.1932 9.21591 33.125 9.64773C34.0625 10.0739 34.7983 10.6676 35.3324 11.429C35.8665 12.1847 36.142 13.054 36.1591 14.0369H33.1165Z" fill="black"/>
<path d="M42.1655 19.0227V26.6932H39.0803V13.6023H42.0291V15.8267H42.1825C42.4837 15.0938 42.9638 14.5114 43.6229 14.0795C44.2876 13.6477 45.1087 13.4318 46.0859 13.4318C46.9893 13.4318 47.7763 13.625 48.4467 14.0114C49.1229 14.3977 49.6456 14.9574 50.0149 15.6903C50.3899 16.4233 50.5746 17.3125 50.5689 18.358V26.6932H47.4837V18.8352C47.4837 17.9602 47.2564 17.2756 46.8018 16.7812C46.353 16.2869 45.7308 16.0398 44.9354 16.0398C44.3956 16.0398 43.9155 16.1591 43.495 16.3977C43.0803 16.6307 42.7536 16.9688 42.5149 17.4119C42.282 17.8551 42.1655 18.392 42.1655 19.0227Z" fill="black"/>
<path d="M57.4723 26.9574C56.6428 26.9574 55.8956 26.8097 55.2308 26.5142C54.5717 26.2131 54.049 25.7699 53.6626 25.1847C53.282 24.5994 53.0916 23.8778 53.0916 23.0199C53.0916 22.2812 53.228 21.6705 53.5007 21.1875C53.7734 20.7045 54.1456 20.3182 54.6172 20.0284C55.0888 19.7386 55.62 19.5199 56.2109 19.3722C56.8075 19.2188 57.424 19.108 58.0604 19.0398C58.8274 18.9602 59.4496 18.8892 59.9268 18.8267C60.4041 18.7585 60.7507 18.6562 60.9666 18.5199C61.1882 18.3778 61.299 18.1591 61.299 17.8636V17.8125C61.299 17.1705 61.1087 16.6733 60.728 16.321C60.3473 15.9687 59.799 15.7926 59.0831 15.7926C58.3274 15.7926 57.728 15.9574 57.2848 16.2869C56.8473 16.6165 56.5518 17.0057 56.3984 17.4545L53.5178 17.0455C53.745 16.25 54.12 15.5852 54.6428 15.0511C55.1655 14.5114 55.8047 14.108 56.5604 13.8409C57.316 13.5682 58.1513 13.4318 59.0661 13.4318C59.6967 13.4318 60.3246 13.5057 60.9496 13.6534C61.5746 13.8011 62.1456 14.0455 62.6626 14.3864C63.1797 14.7216 63.5945 15.179 63.907 15.7585C64.2251 16.3381 64.3842 17.0625 64.3842 17.9318V26.6932H61.4183V24.8949H61.3161C61.1286 25.2585 60.8643 25.5994 60.5234 25.9176C60.1882 26.2301 59.7649 26.483 59.2536 26.6761C58.7479 26.8636 58.1541 26.9574 57.4723 26.9574ZM58.2734 24.6903C58.8928 24.6903 59.4297 24.5682 59.8842 24.3239C60.3388 24.0739 60.6882 23.7443 60.9325 23.3352C61.1825 22.9261 61.3075 22.4801 61.3075 21.9972V20.4545C61.2109 20.5341 61.0462 20.608 60.8132 20.6761C60.5859 20.7443 60.3303 20.804 60.0462 20.8551C59.7621 20.9063 59.4808 20.9517 59.2024 20.9915C58.924 21.0313 58.6825 21.0653 58.478 21.0938C58.0178 21.1562 57.6058 21.2585 57.2422 21.4006C56.8786 21.5426 56.5916 21.7415 56.3814 21.9972C56.1712 22.2472 56.0661 22.571 56.0661 22.9688C56.0661 23.5369 56.2734 23.9659 56.6882 24.2557C57.103 24.5455 57.6314 24.6903 58.2734 24.6903Z" fill="black"/>
<path d="M67.4865 31.6023V13.6023H70.5206V15.767H70.6996C70.8587 15.4489 71.0831 15.1108 71.3729 14.7528C71.6626 14.3892 72.0547 14.0795 72.549 13.8239C73.0433 13.5625 73.674 13.4318 74.441 13.4318C75.4524 13.4318 76.3643 13.6903 77.1768 14.2074C77.995 14.7188 78.6428 15.4773 79.12 16.483C79.603 17.483 79.8445 18.7102 79.8445 20.1648C79.8445 21.6023 79.6087 22.8239 79.1371 23.8295C78.6655 24.8352 78.0234 25.6023 77.2109 26.1307C76.3984 26.6591 75.478 26.9233 74.4496 26.9233C73.6996 26.9233 73.0774 26.7983 72.5831 26.5483C72.0888 26.2983 71.6911 25.9972 71.3899 25.6449C71.0945 25.2869 70.8643 24.9489 70.6996 24.6307H70.5717V31.6023H67.4865ZM70.5121 20.1477C70.5121 20.9943 70.6314 21.7358 70.87 22.3722C71.1143 23.0085 71.4638 23.5057 71.9183 23.8636C72.3785 24.2159 72.9354 24.392 73.5888 24.392C74.2706 24.392 74.8416 24.2102 75.3018 23.8466C75.7621 23.4773 76.1087 22.9744 76.3416 22.3381C76.5803 21.696 76.6996 20.9659 76.6996 20.1477C76.6996 19.3352 76.5831 18.6136 76.3501 17.983C76.1172 17.3523 75.7706 16.858 75.3104 16.5C74.8501 16.142 74.2763 15.9631 73.5888 15.9631C72.9297 15.9631 72.37 16.1364 71.9098 16.483C71.4496 16.8295 71.1001 17.3153 70.8615 17.9403C70.6285 18.5653 70.5121 19.3011 70.5121 20.1477Z" fill="black"/>
<path d="M85.7848 9.23864V26.6932H82.6229V9.23864H85.7848Z" fill="black"/>
<path d="M89.2088 9.23864H93.0781L98.2599 21.8864H98.4645L103.646 9.23864H107.516V26.6932H104.482V14.7017H104.32L99.4957 26.642H97.2287L92.4048 14.6761H92.2429V26.6932H89.2088V9.23864Z" fill="black"/>
<path d="M122.652 14.8125C122.51 14.3523 122.314 13.9403 122.064 13.5767C121.82 13.2074 121.524 12.892 121.178 12.6307C120.837 12.3693 120.445 12.1733 120.001 12.0426C119.558 11.9063 119.075 11.8381 118.553 11.8381C117.615 11.8381 116.78 12.0739 116.047 12.5455C115.314 13.017 114.737 13.7102 114.317 14.625C113.902 15.5341 113.695 16.642 113.695 17.9489C113.695 19.267 113.902 20.3835 114.317 21.2983C114.732 22.2131 115.308 22.9091 116.047 23.3864C116.786 23.858 117.643 24.0938 118.621 24.0938C119.507 24.0938 120.274 23.9233 120.922 23.5824C121.575 23.2415 122.078 22.7585 122.43 22.1335C122.783 21.5028 122.959 20.7642 122.959 19.9176L123.675 20.0284H118.936V17.5568H126.018V19.6534C126.018 21.1477 125.7 22.4403 125.064 23.5312C124.428 24.6222 123.553 25.4631 122.439 26.054C121.325 26.6392 120.047 26.9318 118.604 26.9318C116.996 26.9318 115.584 26.571 114.368 25.8494C113.158 25.1222 112.212 24.0909 111.53 22.7557C110.854 21.4148 110.516 19.8239 110.516 17.983C110.516 16.5739 110.714 15.3153 111.112 14.2074C111.516 13.0994 112.078 12.1591 112.8 11.3864C113.521 10.608 114.368 10.017 115.339 9.61364C116.311 9.20455 117.368 9 118.51 9C119.476 9 120.376 9.14205 121.212 9.42614C122.047 9.70455 122.788 10.1023 123.436 10.6193C124.089 11.1364 124.626 11.75 125.047 12.4602C125.467 13.1705 125.743 13.9545 125.874 14.8125H122.652Z" fill="black"/>
<path d="M9.20001 6.375L12.7 0.375C14.2167 0.775 15.5627 1.50833 16.738 2.575C17.9133 3.64167 18.7673 4.90833 19.3 6.375H9.20001ZM6.42501 8.875L3.00001 2.875C3.90001 1.99167 4.94601 1.29167 6.13801 0.775C7.33001 0.258333 8.61734 0 10 0C10.2167 0 10.4667 0.0126668 10.75 0.0380001C11.0333 0.0633334 11.2917 0.0923333 11.525 0.125L6.42501 8.875ZM0.325011 12.5C0.225011 12.1 0.145678 11.6917 0.0870111 11.275C0.0283445 10.8583 -0.000655431 10.4333 1.1236e-05 10C1.1236e-05 8.81667 0.191678 7.7 0.575011 6.65C0.958345 5.6 1.50001 4.64167 2.20001 3.775L7.25001 12.5H0.325011ZM7.32501 19.625C5.80834 19.225 4.45834 18.4917 3.27501 17.425C2.09168 16.3583 1.23334 15.0917 0.700011 13.625H10.775L7.32501 19.625ZM10 20C9.75001 20 9.49568 19.9833 9.23701 19.95C8.97835 19.9167 8.73268 19.8833 8.50001 19.85L13.575 11.125L17 17.125C16.1 18.0083 15.0543 18.7083 13.863 19.225C12.6717 19.7417 11.384 20 10 20ZM17.8 16.225L12.75 7.5H19.675C19.775 7.9 19.8543 8.30833 19.913 8.725C19.9717 9.14167 20.0007 9.56667 20 10C20 11.1667 19.796 12.2833 19.388 13.35C18.98 14.4167 18.4507 15.375 17.8 16.225Z" fill="url(#paint0_linear_60_35)"/>
<defs>
<linearGradient id="paint0_linear_60_35" x1="-40.7813" y1="-39.0625" x2="42.0312" y2="36.4063" gradientUnits="userSpaceOnUse">
<stop stop-color="#0172EA"/>
<stop offset="1" stop-color="#9747FF"/>
</linearGradient>
</defs>
</svg>
