<svg width="64" height="64" viewBox="0 0 64 64" fill="none" xmlns="http://www.w3.org/2000/svg">
<path d="M22.0452 39.1467C21.5546 39.1467 21.2239 39.1947 21.0532 39.2427V42.384C21.2559 42.432 21.5092 42.4453 21.8586 42.4453C23.1359 42.4453 23.9226 41.8 23.9226 40.7093C23.9226 39.7333 23.2452 39.1467 22.0452 39.1467ZM31.3439 39.1787C30.8106 39.1787 30.4639 39.2267 30.2586 39.2747V46.2347C30.4639 46.2827 30.7946 46.2827 31.0932 46.2827C33.2719 46.2987 34.6906 45.0987 34.6906 42.56C34.7066 40.3467 33.4132 39.1787 31.3439 39.1787Z" fill="url(#paint0_linear_38_59)"/>
<path d="M37.3334 5.33334H16.0001C14.5856 5.33334 13.229 5.89524 12.2288 6.89543C11.2287 7.89563 10.6667 9.25218 10.6667 10.6667V53.3333C10.6667 54.7478 11.2287 56.1044 12.2288 57.1046C13.229 58.1048 14.5856 58.6667 16.0001 58.6667H48.0001C49.4146 58.6667 50.7711 58.1048 51.7713 57.1046C52.7715 56.1044 53.3334 54.7478 53.3334 53.3333V21.3333L37.3334 5.33334ZM25.3281 43.1733C24.5041 43.9467 23.2881 44.2933 21.8721 44.2933C21.5975 44.2985 21.3229 44.2825 21.0507 44.2453V48.048H18.6667V37.552C19.7427 37.392 20.8297 37.3189 21.9174 37.3333C23.4027 37.3333 24.4587 37.616 25.1707 38.184C25.8481 38.7227 26.3067 39.6053 26.3067 40.6453C26.3041 41.6907 25.9574 42.5733 25.3281 43.1733ZM35.4801 46.7867C34.3601 47.7173 32.6561 48.16 30.5734 48.16C29.3254 48.16 28.4427 48.08 27.8427 48V37.5547C28.9191 37.3981 30.0058 37.3241 31.0934 37.3333C33.1121 37.3333 34.4241 37.696 35.4481 38.4693C36.5547 39.2907 37.2481 40.6 37.2481 42.48C37.2481 44.5147 36.5041 45.92 35.4801 46.7867ZM45.3334 39.3867H41.2481V41.816H45.0667V43.7733H41.2481V48.0507H38.8321V37.4133H45.3334V39.3867ZM37.3334 24H34.6667V10.6667L48.0001 24H37.3334Z" fill="url(#paint1_linear_38_59)"/>
<defs>
<linearGradient id="paint0_linear_38_59" x1="-6.75445" y1="25.2089" x2="18.8748" y2="69.844" gradientUnits="userSpaceOnUse">
<stop stop-color="#0172EA"/>
<stop offset="1" stop-color="#9747FF"/>
</linearGradient>
<linearGradient id="paint1_linear_38_59" x1="-76.3333" y1="-98.8333" x2="134.822" y2="55.1109" gradientUnits="userSpaceOnUse">
<stop stop-color="#0172EA"/>
<stop offset="1" stop-color="#9747FF"/>
</linearGradient>
</defs>
</svg>
