<svg width="64" height="64" viewBox="0 0 64 64" fill="none" xmlns="http://www.w3.org/2000/svg">
<path d="M0 0H64V64H0V0Z" fill="url(#paint0_linear_40_77)"/>
<path d="M18 37.321V27.1392H21.8182C22.6004 27.1392 23.2566 27.285 23.7869 27.5767C24.3205 27.8684 24.7232 28.2694 24.995 28.7798C25.2701 29.2869 25.4077 29.8636 25.4077 30.5099C25.4077 31.1629 25.2701 31.7429 24.995 32.25C24.7199 32.7571 24.3139 33.1565 23.777 33.4482C23.2401 33.7365 22.5788 33.8807 21.7933 33.8807H19.2628V32.3643H21.5447C22.0021 32.3643 22.3767 32.2848 22.6683 32.1257C22.96 31.9666 23.1754 31.7479 23.3146 31.4695C23.4571 31.1911 23.5284 30.8712 23.5284 30.5099C23.5284 30.1487 23.4571 29.8305 23.3146 29.5554C23.1754 29.2803 22.9583 29.0665 22.6634 28.9141C22.3717 28.7583 21.9955 28.6804 21.5348 28.6804H19.8445V37.321H18Z" fill="white"/>
<path d="M35.377 27.1392V37.321H33.7363L28.9387 30.3857H28.8542V37.321H27.0098V27.1392H28.6603L33.4529 34.0795H33.5424V27.1392H35.377Z" fill="white"/>
<path d="M44.2077 30.3906C44.1249 30.1222 44.0105 29.8819 43.8647 29.6697C43.7222 29.4543 43.5498 29.2704 43.3477 29.1179C43.1488 28.9654 42.9201 28.8511 42.6616 28.7749C42.4031 28.6953 42.1213 28.6555 41.8164 28.6555C41.2695 28.6555 40.7823 28.7931 40.3548 29.0682C39.9272 29.3433 39.5908 29.7476 39.3455 30.2812C39.1036 30.8116 38.9826 31.4579 38.9826 32.2202C38.9826 32.9891 39.1036 33.6404 39.3455 34.174C39.5875 34.7076 39.9239 35.1136 40.3548 35.392C40.7856 35.6671 41.2861 35.8047 41.8562 35.8047C42.3732 35.8047 42.8207 35.7053 43.1985 35.5064C43.5797 35.3075 43.873 35.0258 44.0785 34.6612C44.284 34.2933 44.3867 33.8625 44.3867 33.3686L44.8043 33.4332H42.0401V31.9915H46.1715V33.2145C46.1715 34.0862 45.9859 34.8402 45.6147 35.4766C45.2435 36.1129 44.7331 36.6035 44.0835 36.9482C43.4338 37.2895 42.6881 37.4602 41.8462 37.4602C40.9083 37.4602 40.0846 37.2498 39.3754 36.8288C38.6694 36.4046 38.1175 35.803 37.7198 35.0241C37.3254 34.2419 37.1282 33.3139 37.1282 32.2401C37.1282 31.4181 37.2442 30.6839 37.4762 30.0376C37.7115 29.3913 38.0397 28.8428 38.4606 28.392C38.8815 27.938 39.3754 27.5933 39.9421 27.358C40.5089 27.1193 41.1254 27 41.7915 27C42.355 27 42.8803 27.0829 43.3675 27.2486C43.8548 27.411 44.2873 27.643 44.6651 27.9446C45.0463 28.2462 45.3595 28.6042 45.6048 29.0185C45.85 29.4328 46.0108 29.8902 46.087 30.3906H44.2077Z" fill="white"/>
<defs>
<linearGradient id="paint0_linear_40_77" x1="-130.5" y1="-125" x2="134.5" y2="116.5" gradientUnits="userSpaceOnUse">
<stop stop-color="#0172EA"/>
<stop offset="1" stop-color="#9747FF"/>
</linearGradient>
</defs>
</svg>
