<svg width="64" height="64" viewBox="0 0 64 64" fill="none" xmlns="http://www.w3.org/2000/svg">
<rect width="64" height="64" fill="url(#paint0_linear_38_47)"/>
<path d="M15.147 38L12.2734 27.8182H14.2571L16.0916 35.3004H16.1861L18.1449 27.8182H19.9496L21.9134 35.3054H22.0028L23.8374 27.8182H25.821L22.9474 38H21.1278L19.0895 30.8558H19.0099L16.9666 38H15.147ZM27.1 38V27.8182H33.7221V29.3643H28.9444V32.1286H33.3791V33.6747H28.9444V36.4538H33.7619V38H27.1ZM35.6039 38V27.8182H39.5016C40.2374 27.8182 40.8489 27.9342 41.3361 28.1662C41.8266 28.3949 42.1929 28.7081 42.4348 29.1058C42.6801 29.5036 42.8027 29.9543 42.8027 30.4581C42.8027 30.8724 42.7232 31.227 42.5641 31.522C42.405 31.8137 42.1912 32.0507 41.9228 32.233C41.6543 32.4152 41.3543 32.5462 41.0229 32.6257V32.7251C41.3842 32.745 41.7305 32.8561 42.062 33.0582C42.3967 33.2571 42.6702 33.5388 42.8823 33.9034C43.0944 34.268 43.2005 34.7088 43.2005 35.2259C43.2005 35.7528 43.0729 36.2268 42.8176 36.6477C42.5624 37.0653 42.178 37.3951 41.6642 37.6371C41.1505 37.879 40.5042 38 39.7253 38H35.6039ZM37.4483 36.4588H39.432C40.1015 36.4588 40.5837 36.3312 40.8787 36.076C41.177 35.8175 41.3262 35.486 41.3262 35.0817C41.3262 34.7801 41.2516 34.5083 41.1025 34.2663C40.9533 34.0211 40.7412 33.8288 40.4661 33.6896C40.191 33.5471 39.8629 33.4759 39.4817 33.4759H37.4483V36.4588ZM37.4483 32.1484H39.2729C39.5911 32.1484 39.8778 32.0904 40.133 31.9744C40.3882 31.8551 40.5887 31.6877 40.7346 31.4723C40.8837 31.2536 40.9583 30.995 40.9583 30.6967C40.9583 30.3023 40.8191 29.9775 40.5407 29.7223C40.2656 29.4671 39.8562 29.3395 39.3127 29.3395H37.4483V32.1484ZM44.805 38V27.8182H48.6232C49.4054 27.8182 50.0617 27.964 50.592 28.2557C51.1256 28.5473 51.5283 28.9484 51.8001 29.4588C52.0752 29.9659 52.2127 30.5426 52.2127 31.1889C52.2127 31.8419 52.0752 32.4219 51.8001 32.929C51.525 33.4361 51.119 33.8355 50.582 34.1271C50.0451 34.4155 49.3839 34.5597 48.5984 34.5597H46.0678V33.0433H48.3498C48.8072 33.0433 49.1817 32.9638 49.4734 32.8047C49.765 32.6456 49.9805 32.4268 50.1197 32.1484C50.2622 31.87 50.3335 31.5502 50.3335 31.1889C50.3335 30.8277 50.2622 30.5095 50.1197 30.2344C49.9805 29.9593 49.7634 29.7455 49.4684 29.593C49.1767 29.4373 48.8005 29.3594 48.3398 29.3594H46.6495V38H44.805Z" fill="white"/>
<defs>
<linearGradient id="paint0_linear_38_47" x1="-130.5" y1="-125" x2="134.5" y2="116.5" gradientUnits="userSpaceOnUse">
<stop stop-color="#0172EA"/>
<stop offset="1" stop-color="#9747FF"/>
</linearGradient>
</defs>
</svg>
